<?xml version="1.0" encoding="UTF-8"?>
<svg version="1.1" xmlns="http://www.w3.org/2000/svg" viewBox="200 250 400 310">
<path d="M0 0 C3.31126146 3.08024322 5.85392431 6.3460586 7.6875 10.5 C7.6875 11.82 7.6875 13.14 7.6875 14.5 C8.6775 14.5 9.6675 14.5 10.6875 14.5 C11.22231283 21.6159818 10.75854625 27.4624314 6.6875 33.5 C4.9921875 35.01953125 4.9921875 35.01953125 3.0625 36.5 C-3.63757445 41.81731987 -7.32513302 50.08764613 -11.3125 57.5 C-11.90289062 58.59441406 -12.49328125 59.68882812 -13.1015625 60.81640625 C-14.80438567 64.59008212 -14.47367485 66.53834463 -13.3125 70.5 C-10.87360104 74.93436174 -8.89849384 78.0300759 -3.9375 79.5 C-3.07125 79.5 -2.205 79.5 -1.3125 79.5 C-1.9725 80.49 -2.6325 81.48 -3.3125 82.5 C0.23921389 85.16378542 3.21645557 86.12246836 7.69921875 85.89453125 C11.34583994 85.17093844 13.56503583 83.41179052 15.6875 80.5 C20.15836921 71.07668629 21.55962537 60.67489462 23.3984375 50.50585938 C25.35755741 40.1151508 27.41464764 29.78011008 35.6875 22.5 C40.47876865 19.56758454 45.24719431 19.64518948 50.6875 20.5 C65.17512645 25.74359637 73.60613176 34.94510628 80.6875 48.5 C88.71842166 66.72561496 89.27493398 84.91022736 89.6875 104.5 C91.6675 99.055 91.6675 99.055 93.6875 93.5 C94.3475 93.5 95.0075 93.5 95.6875 93.5 C96.42734954 100.30661575 93.90805399 104.63042696 90.6875 110.5 C88.49816349 114.60777026 86.99342531 118.51726499 85.75 123 C82.92324618 132.337816 77.98754107 139.11551192 69.2734375 143.796875 C63.04790708 146.5953219 57.57308171 148.48206028 50.6875 147.5 C45.15116948 145.21046581 40.89337146 141.50917416 37.6875 136.5 C37.0625 132.875 37.0625 132.875 37.6875 129.5 C41.18307573 126.03791812 43.81642514 124.95597766 48.66015625 124.4453125 C49.80806641 124.30480469 50.95597656 124.16429687 52.13867188 124.01953125 C54.51836405 123.75955406 56.89857006 123.5042317 59.27929688 123.25390625 C67.49335136 122.23801762 74.84593995 120.36373349 81.6875 115.5 C84.33277826 112.03744069 85.06514783 109.53959571 85.05078125 105.21875 C85.05190918 104.2184375 85.05303711 103.218125 85.05419922 102.1875 C85.03631348 101.135625 85.01842773 100.08375 85 99 C84.98727051 97.9171875 84.97454102 96.834375 84.96142578 95.71875 C84.62721452 77.33436863 80.7195015 57.26161944 66.94921875 43.80078125 C65.6875 42.5 65.6875 42.5 65.6875 40.5 C65.10226562 40.22414063 64.51703125 39.94828125 63.9140625 39.6640625 C61.7882303 38.55266251 59.99804792 37.28341997 58.0625 35.875 C54.06713136 33.39280269 50.71946789 32.54524598 46.015625 32.85546875 C42.36221616 33.86689905 40.89178916 35.5685939 38.91796875 38.7421875 C36.24811298 44.72605471 35.02368595 51.11798755 33.6875 57.5 C33.09101655 60.33101005 32.48986921 63.16065998 31.87524414 65.98779297 C31.47004557 67.85888952 31.07777132 69.73285047 30.70092773 71.60986328 C28.59758181 81.40393243 25.16195474 89.71517069 16.6875 95.5 C12.66653992 97.51048004 8.04814248 97.10564479 3.6875 96.5 C-2.24875931 93.83605755 -7.03544705 89.32539307 -11.3125 84.5 C-11.3125 83.84 -11.3125 83.18 -11.3125 82.5 C-16.2625 82.83 -21.2125 83.16 -26.3125 83.5 C-26.9725 85.15 -27.6325 86.8 -28.3125 88.5 C-29.04476795 90.06057375 -29.79268985 91.61388125 -30.5546875 93.16015625 C-39.8777672 110.47704525 -39.8777672 110.47704525 -42.3125 129.5 C-41.6525 130.49 -40.9925 131.48 -40.3125 132.5 C-36.59361761 131.99287967 -33.57795761 131.38391785 -30.3125 129.5 C-31.68233503 132.66115776 -32.3015638 133.4927092 -35.3125 135.5 C-36.3025 135.5 -37.2925 135.5 -38.3125 135.5 C-34.86785179 138.99475219 -31.33103986 142.33501118 -27.6875 145.625 C-25.55613075 147.5764805 -23.43298845 149.5367076 -21.3125 151.5 C-20.39855469 152.345625 -19.48460937 153.19125 -18.54296875 154.0625 C-1.55392953 170.37993738 18.2331597 195.09087925 19.0625 219.375 C18.8937994 228.7428453 16.00017525 234.98992552 9.5859375 241.76953125 C3.63153644 247.19710258 -1.9705466 248.16399834 -9.953125 247.87890625 C-33.30256181 245.24530698 -55.61989828 225.37584132 -70.1875 207.875 C-71.57811198 206.09542343 -72.95400314 204.30421194 -74.3125 202.5 C-74.93769531 201.69046875 -75.56289063 200.8809375 -76.20703125 200.046875 C-84.6648157 188.6224167 -90.55710632 175.86236187 -89.3125 161.5 C-87.57634225 156.19507354 -84.6672618 153.74290772 -80.3125 150.5 C-76.98241935 148.83495968 -73.8986422 148.91647291 -70.3125 149.5 C-49.1965888 157.26446667 -38.6688416 176.93550295 -29.41162109 196.11914062 C-24.74833184 206.22051708 -23.38048057 216.55319919 -22.3125 227.5 C-16.77656678 230.32685952 -11.80923483 230.85341565 -5.6875 230.9375 C-4.59514038 230.97037109 -4.59514038 230.97037109 -3.48071289 231.00390625 C1.66471663 230.98516365 4.61591334 229.8888511 8.6875 226.5 C11.94556716 220.42814756 11.55187949 212.95313024 9.91796875 206.42578125 C4.83054133 191.8106629 -5.19749588 179.93367797 -15.3125 168.5 C-16.62517209 167.0001506 -17.93769853 165.50017369 -19.25 164 C-20.06984375 163.07380859 -20.06984375 163.07380859 -20.90625 162.12890625 C-22.0741825 160.7760511 -23.17209122 159.36312129 -24.25 157.9375 C-26.62478956 155.13093052 -29.23612004 152.84912269 -32.02734375 150.46484375 C-35.38317036 147.57940651 -38.64407694 144.59098899 -41.91796875 141.61328125 C-43.58468405 140.14233022 -45.30064822 138.72611502 -47.05078125 137.35546875 C-49.3125 135.5 -49.3125 135.5 -50.3125 133.5 C-51.85150083 114.63624691 -45.59531555 100.10673688 -37.3125 83.5 C-49.39708949 82.10431367 -49.39708949 82.10431367 -60.703125 85.41015625 C-63.42005018 87.98011325 -65.85774157 90.68039863 -68.3125 93.5 C-70.02895767 94.99766792 -71.77988711 96.45671675 -73.5625 97.875 C-76.59172145 100.31117669 -79.61671981 102.74802509 -82.6015625 105.23828125 C-104.48782098 123.33857859 -133.18521879 145.4328589 -162.9609375 144.875 C-170.13550827 144.07225082 -176.92623021 141.52476605 -181.875 136.125 C-188.62938305 126.78044056 -188.21638849 117.32227931 -186.8125 106.125 C-181.72088257 82.04589255 -160.59372728 59.73194845 -140.76171875 46.6171875 C-135.1672212 43.09845468 -129.34817137 40.18916051 -123.3125 37.5 C-122.5596875 37.1390625 -121.806875 36.778125 -121.03125 36.40625 C-113.25951826 33.1779922 -102.56879564 33.00656781 -94.5078125 35.296875 C-91.14830743 36.89663932 -89.38390154 38.39289768 -87.3125 41.5 C-85.59694105 52.66762894 -89.17693319 62.01649849 -95.12890625 71.34765625 C-99.42905656 77.20812028 -99.42905656 77.20812028 -102.5234375 78.23046875 C-103.11382812 78.31941406 -103.70421875 78.40835938 -104.3125 78.5 C-102.9797829 74.90550821 -101.35835258 71.8000617 -99.3125 68.5625 C-94.75811054 60.99777018 -93.2017555 54.37401249 -94.3125 45.5 C-96.08792807 41.79459761 -96.08792807 41.79459761 -99.3125 39.5 C-117.34146214 38.25497207 -128.94552104 44.89522727 -142.3125 56.5 C-158.72315189 71.02371283 -172.96702398 93.53475338 -176.3125 115.5 C-176.452975 117.8097332 -176.53235271 120.12369538 -176.5625 122.4375 C-176.58828125 123.62214844 -176.6140625 124.80679688 -176.640625 126.02734375 C-176.14534278 131.26908057 -174.53324271 134.44572221 -170.5625 137.875 C-163.52203034 141.35833509 -154.66644641 140.61525959 -147.30859375 138.4296875 C-143.19672948 137.03559653 -139.24599437 135.33230635 -135.3125 133.5 C-134.68875488 133.21092773 -134.06500977 132.92185547 -133.42236328 132.62402344 C-112.23366068 122.55646309 -94.46304057 106.62879613 -76.86450195 91.40625 C-73.72946973 88.69487078 -70.55248679 86.09198943 -67.3125 83.5 C-73.5825 83.5 -79.8525 83.5 -86.3125 83.5 C-85.3125 77.5 -85.3125 77.5 -83.3125 75.5 C-80.625 75.5234375 -80.625 75.5234375 -77.3125 75.875 C-76.13816406 75.97039062 -74.96382813 76.06578125 -73.75390625 76.1640625 C-71.71248312 76.36333876 -69.67335499 76.61074759 -67.65234375 76.9609375 C-63.2938035 77.48537974 -61.10726589 77.07082633 -57.484375 74.46875 C-54.83269733 72.14437512 -52.36910394 69.64625029 -49.9140625 67.1171875 C-47.20965922 64.3863998 -44.34603637 61.83137522 -41.5 59.25 C-39.95659747 57.8401867 -38.42223067 56.4259572 -36.91259766 54.97998047 C-35.3125 53.5 -35.3125 53.5 -33.39599609 51.99267578 C-30.46991852 49.51973538 -28.59151107 47.70931337 -27.71362305 43.90429688 C-27.50548026 40.87583214 -27.49750483 37.90968347 -27.5625 34.875 C-27.5383499 32.72645163 -27.5058679 30.57797993 -27.46484375 28.4296875 C-27.4479248 27.40456055 -27.43100586 26.37943359 -27.41357422 25.32324219 C-27.08485254 16.14126763 -24.94003723 8.12753723 -18.3125 1.5 C-13.1621486 -3.07809013 -6.01083328 -2.72188677 0 0 Z " fill="currentColor" transform="translate(446.3125,288.5)"/>
<path d="M0 0 C7.50503001 -0.81873055 11.18463102 1.40729693 17 6 C17.97066406 6.72509766 17.97066406 6.72509766 18.9609375 7.46484375 C32.60712189 18.40964062 45.41637028 37.48873188 48 55 C48.18278716 57.72439909 48.1547217 60.26658338 48 63 C35.19126738 60.78139735 20.77421318 43.78104496 13 34 C12.26007813 33.08605469 11.52015625 32.17210937 10.7578125 31.23046875 C3.65213885 22.15617404 -2.13008279 13.86586933 -1 2 C-0.67 1.34 -0.34 0.68 0 0 Z " fill="var(--color-bg-primary, #fafafa)" transform="translate(368,447)"/>
<path d="M0 0 C3.78587616 1.93156947 4.69978397 3.33430358 6.4375 7.1875 C5.80894507 12.66490725 2.89491758 14.40173111 -1.23828125 17.80859375 C-2.14964844 18.53175781 -3.06101562 19.25492187 -4 20 C-5.38275734 21.17845806 -6.75855984 22.36516022 -8.125 23.5625 C-8.75792969 24.11164063 -9.39085937 24.66078125 -10.04296875 25.2265625 C-12.95752992 27.86770177 -15.6962536 30.67304432 -18.43359375 33.49609375 C-20 35 -20 35 -21 35 C-21.08184423 32.02026385 -21.14089764 29.04283168 -21.1875 26.0625 C-21.21263672 25.23169922 -21.23777344 24.40089844 -21.26367188 23.54492188 C-21.34479666 16.59523225 -20.36918875 10.37595718 -16.30859375 4.58984375 C-11.12331122 0.01077379 -6.88047506 -1.46594314 0 0 Z " fill="var(--color-bg-primary, #fbfbfb)" transform="translate(445,294)"/>
<path d="M0 0 C0.495 0.99 0.495 0.99 1 2 C-2.15925741 9.73473365 -9.00664938 15.92479038 -16.27734375 19.703125 C-20.4519237 21.15743827 -23.8149632 21.48266235 -28.1875 21.4375 C-28.88552734 21.45748047 -29.58355469 21.47746094 -30.30273438 21.49804688 C-33.89424251 21.49462965 -35.66660215 21.27163812 -38.48828125 18.97265625 C-38.98714844 18.32167969 -39.48601562 17.67070312 -40 17 C-39.505 15.515 -39.505 15.515 -39 14 C-37.05737305 13.27978516 -37.05737305 13.27978516 -34.51171875 12.7890625 C-33.58286865 12.59884521 -32.65401855 12.40862793 -31.69702148 12.21264648 C-30.70387939 12.01872314 -29.7107373 11.8247998 -28.6875 11.625 C-18.04974286 9.38038275 -8.49112883 7.15918705 0 0 Z " fill="var(--color-bg-primary, #f5f5f5)" transform="translate(528,408)"/>
<path d="M0 0 C0.66 0.33 1.32 0.66 2 1 C3.18049077 4.63705862 3.54908387 6.70198702 2.04345703 10.26123047 C0.63485085 12.71980529 -0.86624508 15.07966764 -2.4375 17.4375 C-2.96666016 18.26443359 -3.49582031 19.09136719 -4.04101562 19.94335938 C-5.34350286 21.973362 -6.6694826 23.98825769 -8 26 C-14.27 25.67 -20.54 25.34 -27 25 C-25.35 23.35 -23.7 21.7 -22 20 C-21.42636719 19.41476562 -20.85273438 18.82953125 -20.26171875 18.2265625 C-16.02850168 13.91981561 -11.58750323 9.92446565 -7 6 C-6.319375 5.41476562 -5.63875 4.82953125 -4.9375 4.2265625 C-3.29398963 2.81499916 -1.64733469 1.40709838 0 0 Z " fill="var(--color-bg-primary, #f4f4f4)" transform="translate(420,341)"/>
<path d="M0 0 C0 4.08481881 -1.70119331 5.84704653 -4 9.1875 C-4.7425 10.27417969 -5.485 11.36085938 -6.25 12.48046875 C-6.8275 13.31191406 -7.405 14.14335937 -8 15 C-8.66 14.34 -9.32 13.68 -10 13 C-9.87129346 9.62565017 -9.23833167 8.2581551 -6.93359375 5.76171875 C-6.10988281 5.07722656 -5.28617187 4.39273437 -4.4375 3.6875 C-3.61121094 2.99011719 -2.78492188 2.29273438 -1.93359375 1.57421875 C-1.29550781 1.05472656 -0.65742188 0.53523438 0 0 Z " fill="var(--color-bg-primary, #e3e3e3)" transform="translate(435,328)"/>
<path d="M0 0 C2.07114674 2.63600494 3.47524303 4.95048605 5 8 C2.03 8 -0.94 8 -4 8 C-2.87548273 5.0280615 -1.77706209 2.66559313 0 0 Z " fill="var(--color-bg-primary, #d5d5d5)" transform="translate(427,360)"/>
</svg>
